<?xml version="1.0" encoding="iso-8859-1"?>
<!-- Uploaded to: SVG Repo, www.svgrepo.com, Generator: SVG Repo Mixer Tools -->
<svg height="800px" width="800px" version="1.1" id="Capa_1" xmlns="http://www.w3.org/2000/svg" xmlns:xlink="http://www.w3.org/1999/xlink" 
	 viewBox="0 0 470.001 470.001" xml:space="preserve">
<g>
	<path style="fill:#C4755B;" d="M39.896,400.814c-1.832,5.704-0.503,12.212,4.015,16.732c3.113,3.115,7.252,4.83,11.654,4.83
		c1.751,0,3.457-0.283,5.077-0.806L39.896,400.814z"/>
	<path style="fill:#FFFFFF;" d="M109.692,330.517c-2.929-2.928-2.931-7.677-0.002-10.607l46.943-46.965l-28.393-28.406
		c-22.264,11.149-44.404,27.442-64.319,47.367c-19.916,19.925-36.203,42.079-47.348,64.355l61.249,61.278
		c0.01,0.01,27.343,27.356,27.343,27.356c22.265-11.15,44.405-27.442,64.319-47.367c19.917-19.926,36.204-42.08,47.348-64.355
		l-28.392-28.405l-84.045,84.084l4.816,4.818c2.928,2.93,2.927,7.679-0.002,10.607c-1.464,1.463-3.383,2.195-5.302,2.195
		c-1.92,0-3.84-0.732-5.305-2.198L88.49,394.158c-0.003-0.003-31.323-31.337-31.323-31.337c-2.928-2.93-2.927-7.678,0.002-10.607
		c2.929-2.927,7.678-2.928,10.607,0.002l4.811,4.813l15.899-15.906c2.928-2.929,7.676-2.931,10.607-0.002L109.692,330.517z"/>
	<path style="fill:#C4755B;" d="M120.299,330.515c-2.929,2.928-7.677,2.93-10.607,0.002l-10.599,10.604
		c2.929,2.928,2.931,7.677,0.002,10.607l-15.904,15.911l10.599,10.604l84.045-84.084l-10.599-10.604L120.299,330.515z"/>
	<path style="fill:#C4755B;" d="M414.836,69.77l12.998-13.004c6.429-6.432,6.429-16.897,0-23.329
		c-3.113-3.115-7.252-4.83-11.654-4.83s-8.541,1.715-11.654,4.83L357.67,80.313c-3.553,3.554-5.274,8.466-4.725,13.479
		c0.248,2.26-0.543,4.511-2.15,6.12L177.842,272.945l10.599,10.604l172.948-173.028c1.609-1.609,3.862-2.403,6.123-2.153
		c5.008,0.55,9.916-1.173,13.467-4.726l13.005-13.011C394.004,90.611,414.809,69.796,414.836,69.77z M387.697,84.206
		c-1.465,1.465-3.385,2.198-5.305,2.198c-1.919,0-3.838-0.732-5.302-2.195c-2.93-2.929-2.931-7.677-0.002-10.607l20.718-20.727
		c2.928-2.929,7.677-2.93,10.607-0.002c2.93,2.929,2.931,7.677,0.002,10.607L387.697,84.206z"/>
	<path style="fill:#1C1918;" d="M466.696,97.559l-34.892-23.545l6.64-6.643c12.273-12.279,12.272-32.258,0-44.538
		c-5.947-5.949-13.854-9.226-22.264-9.226s-16.317,3.276-22.264,9.226l-18.122,18.131l-30.22-30.235
		c-2.929-2.93-7.677-2.93-10.607-0.002c-2.929,2.928-2.931,7.677-0.002,10.607l30.225,30.24l-18.127,18.136
		c-5.887,5.889-9.144,13.726-9.217,21.941L167.237,262.336l-32.16-32.175c-2.231-2.233-5.623-2.829-8.482-1.491
		c-25.403,11.882-50.745,30.082-73.284,52.631c-22.538,22.549-40.729,47.901-52.605,73.317c-1.336,2.858-0.74,6.246,1.49,8.478
		l26.45,26.462c-7.338,12.112-5.79,28.14,4.657,38.593c5.947,5.949,13.854,9.226,22.264,9.226c5.849,0,11.452-1.588,16.323-4.554
		l26.438,26.45c1.438,1.439,3.358,2.198,5.307,2.198c1.075,0,2.159-0.231,3.176-0.707c25.404-11.882,50.746-30.082,73.284-52.631
		c22.539-22.55,40.729-47.902,52.606-73.317c1.335-2.858,0.74-6.246-1.49-8.478l-32.164-32.179l170.61-170.69
		c8.211-0.075,16.045-3.332,21.933-9.222l6.634-6.637l23.531,34.903c1.449,2.149,3.815,3.309,6.226,3.309
		c1.442,0,2.9-0.416,4.186-1.282c3.435-2.315,4.342-6.977,2.026-10.411l-25.165-37.326l11.976-11.982l37.303,25.172
		c1.287,0.868,2.745,1.284,4.188,1.284c2.409,0,4.775-1.159,6.224-3.306C471.034,104.537,470.129,99.875,466.696,97.559z
		 M393.984,90.631l-13.005,13.011c-3.551,3.553-8.458,5.276-13.467,4.726c-2.261-0.25-4.514,0.543-6.123,2.153L188.441,283.549
		l-10.599-10.604L350.795,99.912c1.607-1.608,2.398-3.859,2.15-6.12c-0.549-5.013,1.172-9.925,4.725-13.479l46.854-46.876
		c3.113-3.115,7.252-4.83,11.654-4.83s8.541,1.715,11.654,4.83c6.429,6.432,6.429,16.897,0,23.329L414.836,69.77
		C414.809,69.796,394.004,90.611,393.984,90.631z M93.791,378.243l-10.599-10.604l15.904-15.911
		c2.928-2.93,2.927-7.679-0.002-10.607c-2.931-2.928-7.679-2.927-10.607,0.002l-15.899,15.906l-4.811-4.813
		c-2.929-2.93-7.678-2.93-10.607-0.002c-2.93,2.929-2.931,7.677-0.002,10.607l31.32,31.334c0.003,0.003,10.115,10.119,10.115,10.119
		c1.465,1.465,3.385,2.198,5.305,2.198c1.919,0,3.838-0.732,5.302-2.195c2.93-2.928,2.931-7.677,0.002-10.607l-4.816-4.818
		l84.045-84.084l28.392,28.405c-11.145,22.275-27.431,44.429-47.348,64.355c-19.915,19.924-42.055,36.217-64.319,47.367
		l-27.333-27.346c-0.01-0.01-61.26-61.288-61.26-61.288c11.146-22.277,27.432-44.431,47.348-64.355
		c19.915-19.924,42.056-36.217,64.319-47.367l28.393,28.406L109.69,319.91c-2.928,2.93-2.927,7.679,0.002,10.607
		c2.93,2.927,7.678,2.926,10.607-0.002l46.938-46.96l10.599,10.604L93.791,378.243z M43.912,417.546
		c-4.518-4.52-5.847-11.028-4.015-16.732l20.747,20.757c-1.62,0.523-3.326,0.806-5.077,0.806
		C51.164,422.376,47.025,420.661,43.912,417.546z"/>
	<path style="fill:#1C1918;" d="M408.413,52.872c-2.93-2.928-7.679-2.927-10.607,0.002l-20.718,20.727
		c-2.928,2.93-2.927,7.678,0.002,10.607c1.464,1.463,3.383,2.195,5.302,2.195c1.92,0,3.84-0.733,5.305-2.198l20.718-20.727
		C411.343,60.549,411.342,55.8,408.413,52.872z"/>
</g>
</svg>